<svg xmlns="http://www.w3.org/2000/svg" viewBox="0 0 192 192">
  <defs>
    <linearGradient id="maskgrad192" x1="0%" y1="0%" x2="100%" y2="100%">
      <stop offset="0%" style="stop-color:#0b61a4;stop-opacity:1" />
      <stop offset="100%" style="stop-color:#0d7bb8;stop-opacity:1" />
    </linearGradient>
  </defs>
  
  <!-- Fond plein -->
  <rect width="192" height="192" fill="url(#maskgrad192)"/>
  
  <!-- Icône de carte centrée et optimisée pour maskable -->
  <g transform="translate(25, 25)">
    <!-- Régions stylisées -->
    <path d="M 30 25 Q 45 18 55 28 Q 58 35 48 42 Q 38 38 30 40 Z" fill="#ffc107" opacity="0.9"/>
    <path d="M 70 20 Q 85 22 90 35 Q 87 48 70 50 Q 65 42 70 30 Z" fill="#ff9800" opacity="0.85"/>
    <path d="M 35 60 Q 28 70 38 80 Q 52 83 55 70 Q 50 65 40 63 Z" fill="#f44336" opacity="0.8"/>
    <path d="M 75 65 Q 88 63 93 78 Q 88 91 75 88 Q 73 78 75 70 Z" fill="#2196f3" opacity="0.9"/>
    <path d="M 50 60 Q 65 70 72 68 Q 75 85 55 92 Q 48 80 50 70 Z" fill="#4caf50" opacity="0.85"/>
    
    <!-- Point de géolocalisation -->
    <circle cx="56" cy="50" r="6" fill="#ff5722"/>
    <circle cx="56" cy="50" r="10" fill="none" stroke="#ff5722" stroke-width="1.5" opacity="0.6"/>
  </g>
  
  <!-- Marqueur GPS proéminent en bas -->
  <g transform="translate(80, 120)">
    <path d="M 16 0 L 24 16 L 16 24 L 8 16 Z" fill="#ff5722" stroke="white" stroke-width="1.5"/>
    <circle cx="16" cy="16" r="4" fill="white"/>
  </g>
</svg>
